<?xml version="1.0" standalone="no"?>
<!DOCTYPE svg PUBLIC "-//W3C//DTD SVG 20010904//EN"
 "http://www.w3.org/TR/2001/REC-SVG-20010904/DTD/svg10.dtd">
<svg version="1.0" xmlns="http://www.w3.org/2000/svg"
 width="612.000000pt" height="583.000000pt" viewBox="0 0 612.000000 583.000000"
 preserveAspectRatio="xMidYMid meet">

<g transform="translate(0.000000,583.000000) scale(0.100000,-0.100000)"
fill="#000000" stroke="none">
<path d="M2813 5287 c-35 -17 -87 -49 -115 -69 -29 -21 -105 -74 -168 -119
-144 -101 -195 -150 -214 -205 -8 -24 -33 -159 -56 -301 -23 -142 -48 -272
-56 -290 -10 -26 -21 -33 -51 -38 -141 -23 -469 -139 -526 -186 -19 -16 -20
-19 -7 -32 27 -26 309 -116 443 -142 73 -14 144 -28 160 -31 23 -5 27 -10 27
-40 0 -31 -3 -34 -28 -34 -16 0 -37 -9 -47 -20 -15 -17 -16 -25 -5 -72 7 -29
21 -77 32 -107 10 -30 16 -62 13 -71 -4 -12 -37 -25 -108 -44 -177 -46 -293
-92 -430 -168 -155 -85 -326 -204 -431 -300 -54 -49 -55 -68 -2 -68 83 0 324
-78 440 -143 82 -45 85 -54 47 -107 -17 -24 -31 -50 -31 -59 0 -9 30 -43 66
-77 44 -40 65 -66 62 -76 -4 -8 -174 -99 -380 -203 -357 -179 -546 -281 -651
-349 -92 -59 -147 -180 -167 -361 -6 -55 -17 -143 -25 -195 -20 -140 -34 -261
-45 -390 -5 -63 -19 -189 -30 -280 -11 -91 -20 -173 -20 -182 0 -17 128 -18
2551 -18 l2551 0 -5 33 c-3 17 -9 73 -12 122 -9 126 -51 453 -79 620 -14 77
-32 192 -41 255 -43 303 -102 390 -308 455 -256 81 -644 258 -937 429 -118 68
-146 89 -148 109 -6 51 159 208 271 255 15 6 27 16 27 20 0 5 -33 35 -72 67
-40 32 -73 62 -73 68 0 17 155 59 285 77 136 19 138 25 37 96 -113 80 -522
324 -543 324 -3 0 -19 9 -35 21 -21 15 -262 119 -276 119 -8 0 -1 50 18 123
16 65 18 88 9 111 -10 27 -13 28 -55 23 l-45 -7 1 38 c1 62 11 74 75 93 64 19
376 149 462 193 66 34 69 57 10 81 -43 17 -258 76 -443 122 -55 14 -107 31
-116 39 -10 9 -19 39 -23 74 -16 135 -47 293 -67 333 -46 92 -250 305 -371
388 -96 65 -193 114 -248 123 -27 5 -49 -1 -97 -27z m-34 -1454 c9 -7 -55 -66
-87 -80 -29 -12 -40 -12 -87 2 -51 15 -115 57 -115 76 0 18 81 9 108 -12 30
-23 61 -19 100 12 22 17 63 18 81 2z m577 1 c-3 -9 -6 -20 -6 -25 0 -18 -94
-69 -127 -69 -59 0 -143 45 -143 77 0 21 64 16 85 -7 25 -27 66 -25 94 4 21
22 39 29 90 35 8 0 11 -5 7 -15z"/>
</g>
</svg>
